# xmcd
#
# Track frame offsets:
#	150
#	19577
#	34655
#	49500
#	69942
#	98027
#	112207
#	129705
#	146847
#	167605
#	184927
#	213070
#
# Disc length: 2878 seconds
#
# Revision: 4
# Processed by: cddbd v1.5.2PL0 Copyright (c) Steve Scherf et al.
# Submitted via: audiograbber 1.83.01
#
DISCID=a30b3c0c
DTITLE=Point Blank - Prone To Bad Dreams
DYEAR=1992
DGENRE=Rap
TTITLE0=Point Blank
TTITLE1=After I Die
TTITLE2=Cut U N 1/2
TTITLE3=Life Rep Or Death
TTITLE4=Straighten It Out
TTITLE5=Knock Dem Hoes Out The Box
TTITLE6=Wreckless
TTITLE7=Bitch Said I Raped Her
TTITLE8=Prone To Bad Dreams
TTITLE9=Aggravated
TTITLE10=Nuttin Ass Bitch
TTITLE11="86" Dope "86"
EXTD=
EXTT0=
EXTT1=
EXTT2=
EXTT3=
EXTT4=
EXTT5=
EXTT6=
EXTT7=
EXTT8=
EXTT9=
EXTT10=
EXTT11=
PLAYORDER=
